<?xml version="1.0" standalone="no"?>
<!DOCTYPE svg PUBLIC "-//W3C//DTD SVG 1.1//EN" "http://www.w3.org/Graphics/SVG/1.1/DTD/svg11.dtd" >
<svg xmlns="http://www.w3.org/2000/svg">
<metadata></metadata>
<defs>
<font id="belisa_plumilla_manualregular" horiz-adv-x="80" >
<font-face units-per-em="2048" ascent="1638" descent="-410" />
<missing-glyph horiz-adv-x="367" />
<glyph horiz-adv-x="0" />
<glyph unicode="&#xd;" />
<glyph unicode=" "  horiz-adv-x="367" />
<glyph unicode="&#x09;" horiz-adv-x="367" />
<glyph unicode="&#xa0;" horiz-adv-x="367" />
<glyph unicode="!" horiz-adv-x="296" d="M40 1265q16 162 79 160q111 -5 106 -116l31 -34q-1 -13 -20 -12l-1 -26q-78 -765 -85 -924l-7 -7l-19 1q-46 2 -84 958zM56 94l1 33q17 97 89 94q91 -19 88 -88l-1 -26q-15 -110 -96 -107q-84 36 -81 94zM80 355v6l7 7l13 -1v-7l-14 -12zM199 226v6l20 19h7l19 -21l-1 -6 q0 -15 -33 -19z" />
<glyph unicode="&#x22;" horiz-adv-x="506" d="M40 1708q0 68 84 135h17q83 0 93 -127q-37 -278 -84 -278h-26q-84 92 -84 270zM272 1708q0 68 84 135h17q83 0 93 -127q-37 -278 -84 -278h-26q-84 92 -84 270z" />
<glyph unicode="#" />
<glyph unicode="$" />
<glyph unicode="%" />
<glyph unicode="&#x26;" />
<glyph unicode="'" horiz-adv-x="274" d="M40 1708q0 68 84 135h17q83 0 93 -127q-37 -278 -84 -278h-26q-84 92 -84 270z" />
<glyph unicode="(" horiz-adv-x="331" d="M40 666v259q0 751 225 925h8q18 0 18 -26q-75 -138 -147 -588l-52 -527q69 -522 190 -700l-9 -9h-8q-69 0 -164 294q-61 188 -61 372zM247 1643v8l9 9h9l8 -9v-8l-8 -9h-9z" />
<glyph unicode=")" horiz-adv-x="331" d="M40 26q75 138 148 588l52 527q-69 522 -190 700l9 9h9q69 0 164 -294q60 -189 60 -372v-259q-1 -751 -226 -925h-9q-17 0 -17 26zM57 199v9l9 8h9l8 -8v-9l-8 -9h-9z" />
<glyph unicode="*" horiz-adv-x="461" d="M40 1667v15q5 46 23 46h30l77 -46l-8 76v39l30 30h31q38 -34 38 -61l-15 -99q47 38 152 38l23 -30v-8q-32 -76 -145 -76q69 -120 69 -153l-54 -30q-34 0 -83 122q-51 -76 -107 -76l-15 23v7q0 32 84 122q-130 34 -130 61z" />
<glyph unicode="+" horiz-adv-x="717" d="M40 663v15q0 67 42 67l204 7v252q0 40 34 52h43l17 -15l17 -282l42 8h94l93 7q51 0 51 -52v-7q0 -67 -59 -67h-213l17 -289l-25 -15h-77l-25 22v171l-9 111l-229 -7z" />
<glyph unicode="," horiz-adv-x="282" d="M40 51q14 154 105 154q97 -22 97 -89q-43 -251 -162 -251l-24 17l33 97q-49 28 -49 72z" />
<glyph unicode="-" horiz-adv-x="672" d="M40 640v41q0 20 31 20l81 -10l347 20h72q61 -6 61 -30v-51l-10 -11v-10l-276 -10l-286 10z" />
<glyph unicode="." horiz-adv-x="267" d="M40 129v8q17 86 86 86h22q67 0 79 -108v-7q-14 -108 -93 -108q-94 0 -94 129z" />
<glyph unicode="/" horiz-adv-x="1010" d="M40 36q72 208 280 678q-54 0 -54 18v18l18 18h18q18 0 18 -45h9q0 45 54 108q425 876 524 1048l36 9q27 0 27 -36l-587 -1247l9 -9v-9q0 -64 -90 -180l-36 -64l9 -45q-90 -135 -154 -289l-9 -9h-9q-48 0 -63 36zM311 379l18 18l18 -18l-18 -18z" />
<glyph unicode="0" horiz-adv-x="584" d="M40 1420q0 321 235 445q190 0 244 -521l25 -428l-8 -227v-277l8 -168q-19 0 -34 -76q26 0 26 -17v-33h-17l-25 16q0 -106 -143 -134h-59q-179 0 -210 235q-11 0 -17 59h-8l8 42zM124 1218q48 -1050 109 -1050q0 -33 84 -101h17q0 50 84 202h-25v17q42 0 42 134l8 294v269 q0 729 -151 832h-8v-9l16 -25q-45 0 -109 -193q-67 -54 -67 -370zM258 1714l17 17l17 -17v-9l-17 -16z" />
<glyph unicode="1" horiz-adv-x="477" d="M40 1341q17 0 34 102q47 0 143 354q0 76 25 76h26q50 -5 50 -25l-8 -9l8 -8v-203l-8 -76l17 -101q-17 0 -17 -25l8 -9q-42 -172 -42 -464v-354l26 -67l-9 -34l17 -26l-8 -109v-17h8q2 42 25 42l26 -25q0 -26 -34 -26l8 -8v-51l-17 -25l9 -42l-17 -17v-25h25v-17l-8 -9 q0 -20 93 -50l17 -26v-16q-24 -51 -102 -51q-253 12 -253 42l9 9h8l-8 8v8q27 42 92 60v101l-16 852l8 245v8h-8q-43 -110 -60 -110q-67 0 -67 118zM74 1493v9l17 17l16 -17v-9l-16 -17z" />
<glyph unicode="2" horiz-adv-x="548" d="M40 59q0 165 234 828q151 481 151 710v59q-27 117 -84 117l-8 33h-9l-25 -16l-33 16q-101 -31 -101 -158l-8 -101l17 -42h-9l17 -50l-8 -25l33 -58q0 -17 -25 -17l25 -59l42 17l17 -25q0 -42 -101 -75q-66 137 -66 317q32 335 167 335h33q175 0 209 -293v-16 q0 -320 -276 -962l-58 -193h33v-16l-16 -17l-26 8v-8l17 -59l-17 -83l9 -9v-8l-25 -42v-83h8l209 -9v9l-17 150l17 17q92 0 92 -134l9 -58v-42l-17 -17h-25l-101 17l-108 -9q-176 0 -176 51zM216 1756l16 17l9 -8v-25h-9z" />
<glyph unicode="3" horiz-adv-x="613" d="M40 183q0 83 75 83h17l16 -16l-33 -34q0 -55 58 -116l25 8q0 -19 117 -25q100 66 100 450v316q0 238 -50 292l-34 16q-97 0 -133 -33h-16l-17 17v16l8 9v8l-16 17v8l16 17l9 -9h8l291 575v8l-141 -8h-9l-141 8l25 -158l-25 -17h-42q-58 12 -58 100v92l8 8l-8 8v9 q5 25 67 25h341l33 8q38 -16 42 -33l-150 -283l-17 -50l17 -17v-8l-17 -17h-8l-8 8h-9q0 -23 -116 -224l83 16q150 -48 150 -233h8q0 25 17 25h8l17 -17v-16l-25 -25h-8v25h-9v-17l9 -25l8 8h17v-16q-42 0 -42 -466q-16 -467 -117 -467q-59 -33 -150 -33h-8 q-183 48 -183 183zM132 1116l8 8h17v-25h-9zM148 142l17 16l17 -16l-17 -17z" />
<glyph unicode="4" horiz-adv-x="546" d="M40 569v9q126 1310 172 1310h87l8 -9h9l-181 -1258l103 8h35l-17 526v43l17 18h17l34 -35v-86l-8 -43l26 -371h8q0 35 18 35l17 -18v-17q-26 0 -26 -26l69 17l17 -17l43 9l18 -26v-35q0 -25 -156 -25h-8l17 -285q17 0 17 -52l9 -51l17 -18v-8l-17 -17l26 -61l-9 -8 q78 -9 78 -35v-9l-35 -34h-198l-26 26v26l17 17h69l-26 491h-25q-37 -34 -69 -34q-30 31 -147 43zM411 103v18l17 17h17v-17l-17 -18h-17z" />
<glyph unicode="5" horiz-adv-x="456" d="M40 898q64 958 103 958l94 9h25q154 0 154 -26l-17 -17h-179l-103 -778v-9h9q54 171 119 171q154 0 154 -359v-68q0 -626 -137 -736q-44 -43 -77 -43h-25q-111 70 -111 317v51q0 17 25 17q36 -12 52 -43v-171l17 -26v-8l-9 -9q26 -85 43 -85h17l26 17l-9 8v9 q86 141 86 180q0 191 25 308q-15 0 -25 77l17 17v8l-17 17l8 60v248q-22 146 -94 146l-17 -34h26v-26h-26v17h-9l-42 -162l17 -18l-9 -8h-8l-9 8h-8q0 -37 -35 -51q-51 17 -51 34zM245 633l17 17h9l17 -17l-17 -17h-9z" />
<glyph unicode="6" horiz-adv-x="512" d="M40 1079v147q0 523 129 647h9q57 0 130 -104v-25l-44 -35l-17 17v18l17 25l-51 44h-9q-95 -69 -95 -397v-156l9 -60h8q20 17 121 34q81 -46 121 -233q43 -309 69 -725l17 -17l-8 -35l26 -51l-9 -9h-9l-17 17q-63 -181 -129 -181h-26q-148 0 -199 449q-43 325 -43 630z M118 1010l8 -104v-26q11 -509 52 -509v-34l-9 -35q0 -57 70 -155l-9 -9v-9q29 -68 60 -86h26q35 77 35 138v9q0 469 -95 863l-69 112l-26 9zM247 164l9 9h8l18 -18v-8h-18z" />
<glyph unicode="7" horiz-adv-x="603" d="M40 1706l9 60v95q0 19 102 25l189 -8l129 17l94 -26l-249 -926l-25 -146q19 0 25 -42l-42 -112l-9 -103l9 -8h8l-17 -103v-112q13 -231 34 -231v-60l-25 -26h-35q-60 16 -60 86l-17 180l9 8v9l-18 77l18 34l-26 35q26 26 60 274l146 643q25 56 120 472l-43 8h-17l-26 -17 l-9 9h-8l-26 -9q0 21 -86 26l-128 -17v-34l17 -129l-9 -9h-25q-54 0 -69 60zM134 480v9l9 8h8l9 -8v-9l-9 -8h-8zM297 120h17v-17z" />
<glyph unicode="8" horiz-adv-x="480" d="M40 588v119q0 330 128 494q-85 0 -85 289q0 331 119 375h34q111 0 111 -230v-187q0 -229 -69 -264q77 -62 77 -196l9 -9h8l-8 -8v-17q17 -17 25 -119l9 -9l-9 -25l43 -196l-9 -26l17 -221q-24 -358 -162 -358l-42 9l-9 -9h-8q-102 28 -102 60l8 42q-17 0 -17 51 q-25 0 -25 17l8 26q-51 172 -51 392zM49 179v8l8 9h9l8 -9v-8l-8 -9h-9zM117 409q0 -29 25 -60l-17 -25v-9q0 -190 136 -238h17q69 54 69 153q-45 928 -120 928h-17q-93 -166 -93 -664v-85zM159 1371h9v17h-9v-17zM159 1397l26 17h17v-43l-9 -8v-9l-8 9h-17v-52 q0 -64 42 -93h43q60 0 60 409q0 204 -94 204q-60 -138 -60 -307v-127zM176 1303v25h9l17 -17l-17 -17zM415 724v17l17 17l8 -9v-8l-17 -17h-8z" />
<glyph unicode="9" horiz-adv-x="485" d="M40 1233v59q22 558 186 558l8 8h9q135 0 169 -566v-25l33 -68l-17 -50l17 -60l-17 -25v-203q0 -853 -135 -853l-25 -8q-135 7 -135 101v9q29 59 42 59l17 -34l-17 -42q42 -51 76 -51q17 0 17 51q25 0 25 25h9l-9 9l43 321l-26 8q0 85 34 85v295h-8q0 -27 -60 -59h-25 q-185 65 -211 456zM133 1385q0 -496 84 -532l34 -34h9q76 25 76 178l8 25q-25 600 -59 600l-9 8l17 17q-33 44 -33 84q-43 23 -43 43h-8q-76 -126 -76 -389zM217 1723l17 17l9 -9v-8h-26z" />
<glyph unicode=":" />
<glyph unicode=";" />
<glyph unicode="&#x3c;" />
<glyph unicode="=" />
<glyph unicode="&#x3e;" />
<glyph unicode="?" horiz-adv-x="508" d="M40 1079v7q18 272 170 347q1 13 48 20h20q158 0 190 -292v-28q0 -105 -95 -312q-32 -129 -68 -129l-20 -21l-7 -20h14v-21l-102 -156l-21 -102q0 -111 21 -197l-41 -20q-48 0 -48 142q0 255 259 701l27 156q-18 245 -102 245h-14q-68 -48 -68 -102q-95 -62 -95 -265v-28 q0 -104 68 -183v-14q0 -29 -41 -47q-95 120 -95 319zM94 -8v40q0 70 96 89q68 0 81 -102v-14q0 -102 -109 -102q-68 26 -68 89zM217 1324l7 7h13v-21h-7zM319 664v7l13 14l14 -14l-20 -13z" />
<glyph unicode="@" horiz-adv-x="627" d="M40 502q73 966 257 966h40q138 -72 196 -243q54 -178 54 -406q0 -340 -101 -432h-68q-74 51 -74 135h-7q-53 -88 -108 -88q-108 76 -108 257q0 186 142 318h7q104 0 148 -88q11 -68 27 -68q27 0 27 -40q0 -42 -60 -142l-21 -115l34 -115h41l-7 7v27l40 67q-33 0 -33 21 l13 13h14l20 -13l7 61l-7 27q13 0 13 33h7q-27 509 -81 568q-63 148 -101 148q-74 -20 -102 -74v-13h-6l6 -7v-7q-33 0 -101 -243q-61 -337 -61 -554q0 -67 27 -115l-6 -7v-6l6 -27l-6 -21l13 -13v-27l-7 -7l7 -7v-6l-7 -7l75 -189q20 -41 60 -41q65 0 122 135q15 0 34 156 l40 27q34 -10 34 -48q0 -245 -209 -351h-34q-111 0 -162 209q-27 123 -34 345zM108 1292l20 21h7l20 -21l-20 -20h-7zM202 624q14 -61 34 -61h7q81 127 81 256q-9 106 -34 115q-54 0 -88 -304v-6zM351 272l13 14l14 -14l-14 -13z" />
<glyph unicode="A" horiz-adv-x="648" d="M40 41v8q0 14 74 58q66 1235 99 1490l-8 42l8 8v8l-8 8v9l16 123q-25 0 -25 17v8l58 41h25q61 0 66 -25l-9 -24q27 -233 75 -462l-9 -8v-8q25 0 25 -33l-8 -25l16 -140v-8q25 -35 25 -66l-17 -49v-17l50 -255v-8l-17 -17l25 -189q25 0 25 -16v-17l-17 -16 q52 -392 66 -404q33 -12 33 -25v-16q0 -25 -132 -25q-57 12 -57 33v8q16 20 24 83l-49 370h-8q-75 0 -157 25h-24l-9 -181v-280h42l24 -25v-8q0 -27 -123 -33q-99 11 -99 41zM213 585l58 8h107q-32 172 -66 782q-12 0 -25 173h-8q-25 -633 -66 -963zM271 1581h8v25h-8v-25z M304 618v8l8 8h24l17 -16l-8 -9h-9l-8 9h-8l-8 -9z" />
<glyph unicode="B" horiz-adv-x="814" d="M40 1822v17q0 26 93 34q266 -57 329 -152q34 -38 50 -135l9 -8q0 -249 -160 -363l-59 -51q257 -112 379 -346q93 -192 93 -329q0 -295 -253 -447l-329 -42q-50 0 -85 1519v270q-67 0 -67 33zM242 1780l17 -523l9 -25q177 128 177 337v42q0 79 -152 161zM268 1105l8 -464 q26 -65 51 -548h34l143 42q211 109 211 337v17q0 160 -101 304q-26 0 -26 25l9 26h-9q-79 139 -219 194l-101 76v-9zM605 76l51 51l17 -17v-9l-34 -42h-17z" />
<glyph unicode="C" horiz-adv-x="577" d="M40 1036q0 361 120 702q62 120 120 120h8q89 0 146 -94v-9q0 -102 -34 -102h-18q-14 0 -25 51l8 34v9l-42 8q-99 -82 -112 -197l-25 -137l8 -34q-43 -184 -43 -351q0 -653 240 -925q51 93 51 129v17q-34 0 -34 17v26l26 25h34q43 0 43 -102l8 8h9l9 -8v-9q-52 0 -52 -86 q-45 -100 -94 -128h-26q-83 0 -145 103l-17 -17q-35 36 -35 68l18 17q-146 298 -146 865zM194 154l9 -26h8v9l-8 26h-9v-9z" />
<glyph unicode="D" horiz-adv-x="704" d="M40 25v9q0 27 59 33v26q-34 0 -34 17v17h26l8 -9h8v9l-8 92q17 280 25 1527q-33 0 -33 17l16 17l9 -8h8v8l-50 34v17q16 30 50 42l51 -17l34 9q226 -101 346 -321q109 -280 109 -565q0 -533 -168 -810q-150 -169 -313 -169h-118zM217 135l9 -51q202 82 202 161l25 8 l26 -8v8q126 234 126 734q0 268 -109 532l-9 -9h-8l-17 17v9l17 16q0 62 -220 178q-33 -489 -33 -1384v-177z" />
<glyph unicode="E" horiz-adv-x="493" d="M40 1512v157q0 182 41 182q47 23 190 33q124 0 124 -116v-24l-24 -17h-17q-18 0 -25 83l-82 8h-83l-25 -25v-297q0 -281 25 -281l-8 -42v-57l16 -67v-24q33 0 33 -91q40 0 58 49h8q66 -63 66 -91v-8l-24 -16l-9 8q0 -33 -16 -33h-17q-20 0 -24 33l-58 -8l-25 8v-8 q0 -257 58 -777h25l24 16q25 -41 116 -41l8 8v9l-8 57l8 9h33q25 -9 25 -50q0 -91 -116 -91l-74 -8q-155 0 -173 41v17q-25 403 -50 1454z" />
<glyph unicode="F" horiz-adv-x="433" d="M40 1610l8 206q70 49 206 49h49q90 0 90 -115v-16l-16 -17h-25q-16 0 -16 25l-8 -8h-9l-16 16v8l16 17l9 -9h8v9q0 21 -66 32l-123 -8l-8 -131l24 -740h82q0 50 25 50l33 -33v-99l-17 -16h-8l-41 41l-74 -25l33 -41v-41l-25 -33q0 -135 50 -665l8 -8l41 8h8l25 -25 l-33 -33l-25 8l-16 -16l-33 8l-90 -8h-25l-16 16v25l24 33z" />
<glyph unicode="G" horiz-adv-x="544" d="M40 946q22 709 59 709q46 203 118 203h42q161 -17 161 -93q0 -57 -42 -84q-21 0 -26 33l9 60q-33 25 -93 25q-49 0 -93 -186v-17h9v34h8q17 0 17 -25q-9 -51 -25 -51l-9 34h-8l-17 -211v-211l17 -76l-9 -9l17 -101l-8 -8v-9l17 -51v-25q0 -42 -17 -42l8 -8v-9l-17 -84 q39 -642 135 -642l42 -8h17l-8 42l17 17h8l26 -17l-34 439l8 8v9l-8 8v9l8 33q0 15 -59 51v17q9 25 51 25h93l25 -17l-17 -185l42 -499q0 -25 -50 -50l-51 34l-76 -17h-34q-117 0 -202 202q-51 202 -51 743z" />
<glyph unicode="H" horiz-adv-x="636" d="M40 1824v8l25 25h32q63 0 74 -33q-17 -33 -41 -33v-98l-8 -106l8 -41l-8 -82v-16h8l-8 -57v-221q0 -51 33 -164v-65h8l196 -17l-8 9v8q-33 419 -33 711v164q-33 0 -33 16v8q0 25 90 25h90q19 0 25 -41l-41 -16q3 -164 16 -164l-8 -33q41 -1388 74 -1546h41l24 -24 q0 -33 -106 -41q-114 11 -123 41v8l33 25l-33 400l8 58l-8 196v90l-41 -8l-8 8v8l25 25l8 -8h8v16h-8q-90 0 -221 24q21 -449 49 -449l-8 -41l16 -17q-6 -122 -24 -122l24 -180h49l17 -17v-16q0 -14 -98 -33l-9 8l-8 -8h-8l-33 25v8l33 24q-31 0 -74 1563l9 172z" />
<glyph unicode="I" horiz-adv-x="276" d="M40 1800v32q0 25 82 33q90 -6 90 -25v-8q-17 -32 -41 -32q23 -229 33 -1710q0 -25 24 -25l8 -8v-24q0 -20 -147 -33l-16 82l8 8h8l8 -25h8v17q0 319 -32 319l8 98l-16 57q24 46 24 107l-41 989l17 123z" />
<glyph unicode="J" horiz-adv-x="387" d="M40 16l17 17h9l25 -17l17 17v-26h-17v-8l9 -25h25q128 35 128 298l9 221v52l-17 162l17 17v77q0 42 -17 42l8 43q-16 896 -51 896q-102 8 -102 25v9q11 34 77 34h102l34 -34l-9 -9q35 -102 43 -1041l-8 -639q0 -175 -248 -205q-51 18 -51 34v60zM133 846v6h12l11 -12v-6 h-11z" />
<glyph unicode="K" horiz-adv-x="604" d="M40 1830v17q5 25 67 25h83l25 -25v-9q-9 -25 -50 -25q16 -62 16 -183l-8 -49q25 -183 25 -516v-50h8l158 740q-25 0 -25 17v16h9q16 0 16 -24h9l8 41q-42 11 -42 25v8q0 42 175 42l17 -25v-25l-9 -8q-74 -17 -74 -100q-92 -220 -167 -641l9 9h16l17 -17l-17 -17l-8 9h-8 v-17l149 -807q17 0 17 -41v-9l-8 -8q27 -116 41 -116l67 8l8 -8v-17q0 -27 -83 -50q-117 11 -117 42v8l17 25q-66 217 -150 873h-8q0 -53 -25 -58l8 -83l-8 -316v-175l8 -50l-8 -41v-109q33 0 33 -16v-8l-16 -25l25 -25l-25 -25h-92l-16 16v9l25 25l-17 341v449l-25 782 l8 166q-53 0 -58 25z" />
<glyph unicode="L" horiz-adv-x="558" d="M40 1846v9q0 19 109 25q101 -12 101 -59q-36 -25 -67 -25l25 -134l-17 -67v-17h8l-8 -134l25 -957l-17 -277l17 -151q227 21 227 42v67q5 50 25 50h17q23 0 33 -184q0 -22 -386 -34q-38 16 -42 34q0 28 26 58l-17 101q17 135 25 604q-21 1024 -42 1024q-42 0 -42 25z M225 92v9l16 17h9v-17l-17 -17z" />
<glyph unicode="M" horiz-adv-x="899" d="M40 1838q0 25 159 42q58 -5 58 -50q-27 -25 -50 -25q109 -577 226 -1086h8q92 686 209 1094h-8q-25 0 -25 17v17q0 25 100 25q75 -5 75 -25v-9q0 -19 -42 -25l-8 -184l17 -309l-9 -75l50 -961l-8 -25l17 -17v-25l-9 -58q17 0 25 -59l-8 -8v-8q0 -26 33 -26l9 -8v-17 l-25 -25h-142l-59 -8l-16 25v8q0 17 50 25l-9 184v50l-25 51q17 70 17 183v1078h-8l-117 -626l8 -42q-33 -89 -59 -293q-22 -55 -50 -66h-8l-17 16l-8 -8h-17l-16 17v16l25 25q0 40 -59 126v8l8 8q-108 492 -108 552h-9v-34l17 -1002l-8 -217q75 -12 75 -34v-8 q0 -31 -125 -42h-84l-25 25v8l33 25v17l-8 752l25 418l-8 217l8 9v8q-8 71 -42 100v17l17 17l-17 41l25 17l-8 8v9l8 33l-8 9l8 41v34q-58 11 -58 33z" />
<glyph unicode="N" horiz-adv-x="766" d="M40 1849l50 42h42q111 0 134 -42v-8q-12 -34 -67 -34q142 -335 293 -811q17 0 17 -50l25 16h8l17 -16v-9q0 -17 -34 -17v-8q28 -58 51 -59v201l-9 34l9 8l-9 84v493l9 92q0 53 -67 59l-9 8v17q0 27 84 34q142 0 142 -25v-17l-25 -25v-9h-8l-9 9h-8l-25 -51l8 -83l9 -653 l-9 -209l17 -703l8 9h9l16 -17l-16 -17l-25 17v-34q58 -8 58 -25v-8q0 -25 -109 -42q-100 21 -100 42q14 33 59 33l-9 9v16h9l-9 84v59l9 410q-84 140 -268 669q-17 0 -25 84l-17 16l8 42q-20 0 -50 92h-25q17 -431 17 -1246v-34q0 -192 58 -192l9 -9v-8q0 -50 -134 -50 q-101 0 -101 58l51 25l-9 42v452l-25 25q42 134 42 603l-34 602q-33 0 -33 25z" />
<glyph unicode="O" horiz-adv-x="548" d="M40 962v51q0 413 102 800q37 60 102 60q104 0 196 -272l-8 -9q76 -254 76 -690v-161q-25 -614 -110 -698q0 -23 -43 -43h-51q-201 31 -255 639zM108 919q21 -318 43 -383l-9 -25h9q34 0 34 -94h-9l9 -8v-26h-17q105 -272 127 -272l9 8h17q6 -51 43 -51v9l-18 25v9 q52 69 52 110l-9 26q40 17 68 613q0 454 -102 775l-43 119l-25 -17l-17 51h-26q-110 -315 -110 -613z" />
<glyph unicode="P" horiz-adv-x="580" d="M40 1854l8 9q0 17 60 17v8l42 -8h42q252 0 331 -178l17 -187q0 -479 -68 -626l-127 -119l-26 9q0 -25 -33 -25l-26 8q0 -17 -51 -17q0 -25 -25 -42q0 -146 25 -356l-8 -59l8 -161v-42q0 -17 68 -26l9 -8v-9l-77 -42q-127 6 -127 34l26 34l-9 34l17 84q-25 646 -42 737 l8 51q-34 459 -34 677l17 186q-25 0 -25 17zM159 1769l16 -914h26q228 0 237 102l-9 25l9 -8h8q24 0 43 448v102q0 245 -127 245q0 17 -68 17z" />
<glyph unicode="Q" horiz-adv-x="575" d="M40 1021q42 837 179 837h43q145 -85 145 -179q79 -152 120 -837v-51l-9 -43l17 -17q-19 0 -42 -376q-61 -366 -111 -366l42 -69h26q6 43 25 43h18l25 -26q-17 -61 -68 -94h-34q-46 0 -111 86h-9l-25 -9l-9 9v34l17 26q-239 99 -239 1032zM117 919q0 -222 43 -342 q0 -68 17 -68l-9 -43v-8l17 -94l-8 -9v-8q109 -299 187 -299q94 348 94 760v85q-25 616 -85 666q-46 222 -102 222q-35 -8 -35 -43h26v-25q-65 -45 -94 -231z" />
<glyph unicode="R" horiz-adv-x="769" d="M40 1806v17q0 34 109 42l51 -8l42 8q261 0 344 -202q34 -106 34 -159v-101q0 -231 -236 -588l227 -739v-9h25q93 0 93 -25q-22 -42 -126 -42q-109 11 -109 34q0 12 33 25q-134 354 -193 697q-23 0 -126 -134l17 -345l-9 -92l9 -84l-9 -42l84 8l26 -25v-8q0 -28 -135 -34 h-25q-64 0 -76 34v16h34l-8 9v67l-9 67l9 42l-9 84l9 252v84q0 394 -51 773l9 34l-9 176v135zM191 756q67 0 109 118l143 243q93 74 93 194l25 25v84q0 268 -118 336l-92 33l-118 -8h-17q-18 0 -25 -92l17 -311l-8 -51l8 -92zM611 1176v17h9v-17h-9z" />
<glyph unicode="S" horiz-adv-x="490" d="M40 1681q20 184 142 184q148 0 218 -125q0 -81 -51 -118h-8l-17 17v17l17 25l-17 17l-16 -17l-17 17v25h17q-35 42 -101 42h-67q-50 -29 -50 -84q0 -255 218 -769q142 -427 142 -577q-43 -318 -176 -318q0 -17 -67 -17q-71 0 -125 92q11 142 42 142l16 -17v-16l-8 -42 q45 -50 125 -50q118 58 118 175v126q0 182 -159 585q-24 24 -84 234q-92 250 -92 452zM174 151l17 16l8 -8v-25h-8z" />
<glyph unicode="T" horiz-adv-x="616" d="M40 1843q20 22 126 33l8 8l201 -16l42 8l75 -17l51 9h8q20 0 25 -67q-10 -84 -33 -84h-17q-17 0 -25 84l-84 -9h-42l8 -8v-8l-16 -193v-410q0 -30 33 -59l-8 -8v-9l8 -8q-10 -218 -25 -218l8 -50q17 -605 51 -754q42 -6 42 -25v-8l-17 -17h-59l-67 -17h-33l-17 17v17 q0 19 42 25l-59 1541l9 192h-26q0 -33 -16 -33q0 50 -134 50v-84l-17 -16h-8q-28 0 -34 134zM275 771v8h16v-8h-16zM400 1901v9l9 8h8l8 -8v-9l-8 -8h-8z" />
<glyph unicode="U" horiz-adv-x="769" d="M40 1834l50 42q166 -15 166 -58q0 -17 -25 -17v-8q25 0 25 -17l-17 -16h-8l-8 8h-9l9 8v17h-25l8 -42l-8 -298q0 -996 157 -1245l59 -67v8l-17 25l17 17l41 -50l-25 -8q0 -23 83 -33q0 31 67 33v41l16 17h8l9 -8h8v8l-8 75l8 8h8l9 -8l25 282q0 713 -50 1087l8 25l-8 50 v91q-37 0 -50 33v25l8 9v8l83 -8h75v-25l-42 -58l-16 16q0 -173 41 -705v-432l9 -249q-15 0 -42 -199q-53 -216 -158 -216q-231 0 -332 324l-33 299l9 33q-67 921 -67 1120z" />
<glyph unicode="V" horiz-adv-x="746" d="M40 1846l25 34h118q59 0 59 -51l-59 -17q36 -531 76 -531v-34h-8l8 -8v-118l9 -76l-9 -8v-9q34 -231 160 -809h9q0 307 177 1559h-26v17l17 17l9 -8h8v17q-25 0 -42 33q0 34 118 34l17 -25v-17q-54 0 -110 -649q-76 -422 -118 -936l17 -17v-8q-25 -31 -25 -118l8 8h9 l8 -8v-51q34 -4 34 -25q0 -42 -169 -42q-25 36 -25 67l34 26q-7 155 -135 455v25l8 9q-17 38 -17 109v9l9 33l-143 1088q-51 11 -51 25zM57 1795v17h8v-17h-8z" />
<glyph unicode="W" horiz-adv-x="892" d="M40 1839v8q0 27 108 33h33l16 -17v-24l-8 -9v-8q33 -4 33 -25q0 -16 -33 -16l157 -945l92 -530h8v116q0 194 50 522h-9l-25 25v8q0 17 42 17q0 149 41 149l17 -17l-9 -25q35 -288 67 -405v-108q0 -52 41 -149l8 -124h-8l25 -141h8v290l17 1350q-42 10 -42 25q0 28 58 41 l9 -8l41 8h58l17 -17v-8q-5 -25 -58 -25l8 -25q-33 0 -58 -1432v-17h8q0 58 17 58l8 -8v-17q0 -43 -25 -49l-8 8v-8l-8 -257q49 0 49 -33q-17 -50 -66 -50q-45 0 -66 41l16 17q-58 86 -124 621l-8 116h-8q-25 -352 -25 -729q41 -6 41 -25v-8l-16 -16h-58q-61 0 -67 24v9 l17 16q-124 421 -207 944l-8 9l8 33q-15 38 -50 414q-58 348 -99 348z" />
<glyph unicode="X" horiz-adv-x="630" d="M40 1827v26q17 34 51 34l34 -9l76 9q50 -9 50 -26v-8q0 -17 -25 -17l-34 -9l-8 -8v-9l51 -287l8 -9h8l-8 -59l51 -347h8q0 94 110 702q-42 0 -42 26v17q0 25 85 42h42q45 0 59 -34v-17q-8 -25 -51 -25h-34l9 -59l8 8h17l17 -17l-17 -17h-8l-9 9h-8l-42 -186 q-24 -49 -51 -220l8 -93l-67 -339l135 -516q0 -99 68 -304q46 0 59 -43v-8l-25 -26h-119q-45 0 -59 34v9q0 20 68 34q-94 304 -153 651h-8l-9 -110l9 -8l-59 -525q8 -34 50 -34l17 -25v-9l-25 -25l-152 17v17q76 51 76 304l17 85l-9 8v9l59 499q-84 309 -135 745 q-31 143 -93 143z" />
<glyph unicode="Y" horiz-adv-x="777" d="M40 1846q0 28 109 34h9q64 0 75 -34v-16q0 -26 -50 -26q164 -461 210 -461l33 -76l-17 -16l34 -93q20 0 33 160q62 288 126 503h-8l-50 -8l-17 17v16l25 26h159l26 -26q0 -58 -59 -58l-160 -756v-369q0 -403 34 -403l17 -17q0 -38 -25 -75v-92l8 8h8l34 -34v-16 q0 -17 -176 -34l-9 8v34q34 29 34 59v705q0 96 -25 159q0 59 16 59q-50 97 -50 134h9q-252 583 -252 655v8l-34 -8q-67 10 -67 33zM208 1788h17v-17z" />
<glyph unicode="Z" horiz-adv-x="588" d="M40 51q76 440 195 864l135 694l-8 8h-9l9 9v17q-26 0 -26 17q44 26 85 144h-25l-136 -17l-68 17q-42 0 -42 -43h9l16 -16q-8 -26 -50 -26q-28 0 -34 102l25 42l26 -8l186 17l8 -9h9l42 17q136 0 136 -68v-25l-263 -1177l-17 -34l9 -26h-9q-14 0 -25 -67h17v-43h-26 q0 -60 -17 -93l9 -34l-9 -25l9 -25q-17 0 -34 -94v-34l8 -42l-25 -8v-17h119q203 0 203 51q8 101 25 101h17q24 0 34 -186l-25 -17l-458 -17zM446 161v25h9l17 -17l-17 -17zM463 237v9h17v-9h-17z" />
<glyph unicode="[" />
<glyph unicode="\" />
<glyph unicode="]" />
<glyph unicode="^" />
<glyph unicode="_" />
<glyph unicode="`" horiz-adv-x="310" d="M40 1775q0 28 50 69h6q69 0 174 -205v-31l-19 -19q-20 0 -161 112q-29 0 -50 74z" />
<glyph unicode="a" horiz-adv-x="644" d="M40 1069v20l20 20l20 -20l-20 -20h-20zM50 1168q0 238 168 238l109 10q107 0 168 -119h30v-20h-30q20 -38 20 -109l-39 -782v-158h10l9 10h10l10 -10v-10l-29 -10v-10q0 -54 49 -79q0 39 20 39t20 -49l29 -30v-39q-16 -40 -69 -40h-30q-99 53 -99 109q-105 -89 -158 -89 h-10q-84 0 -129 188q-49 0 -49 20v10q0 24 39 29v10q0 271 129 406q49 116 218 307v139q-59 218 -149 218h-118q-26 0 -40 -80v-9l10 9h10l20 -19l-10 -10l20 -60q0 -63 -90 -79zM218 149q30 0 30 -50h20l39 59h10l20 -19q0 39 40 39v10q-30 0 -30 20l20 20h20v-30h9v594h-9 l-80 -178q0 -30 -19 -30l9 -49q-23 -70 -49 -70v-19q-30 -133 -30 -297z" />
<glyph unicode="b" horiz-adv-x="586" d="M40 1814q26 51 110 51q59 0 59 -219l-17 -557v-17h8q0 55 102 109l76 9l16 -17h17l9 8h8l-8 9v8q16 39 34 43h8l25 -26v-25l-25 -34v-8q67 -78 67 -237v-143l17 -135l-17 -17v-42l9 -42q-16 -507 -118 -507q-90 0 -161 51h-8v-8l25 -43q0 -25 -168 -25l-9 8v17 q0 23 42 26v33l-8 -8h-17v8l17 26q-19 396 -34 396l9 76v17l-17 17l17 144v329l8 84l-17 17v101h17l-25 498q-51 0 -51 25zM192 650q23 -498 51 -498v-34l118 -42h25q25 5 25 67v600q-20 322 -84 337h-17q-118 -81 -118 -160v-270z" />
<glyph unicode="c" horiz-adv-x="505" d="M40 739v71q0 439 172 568l91 30q71 0 122 -243h10q-10 -101 -30 -101h-51l-30 30v41q2 50 20 50q-10 162 -41 162h-20q-81 -151 -81 -324v-172l-10 -193l10 -30l-10 -10v-10l10 -41l-10 -30l10 -61v-20l-10 -10l20 -31l-20 -101q19 -243 132 -243h10q43 16 81 132l-10 30 l10 10q-34 0 -51 51q21 61 41 61h30q30 -11 30 -61v-41q0 -208 -152 -253h-70q-203 129 -203 739z" />
<glyph unicode="d" horiz-adv-x="567" d="M40 624q0 168 26 248v137q35 180 119 180q105 0 163 -103h8v163l-8 547l8 34l-8 -8h-26l-17 17l34 34h77l17 -17l9 -103l-9 -367v-377l-8 -120q0 -381 60 -795q34 0 34 -17v-9l-9 -8v-9l17 -17v-8q0 -21 -85 -26q-60 0 -60 86q0 34 -17 34q-74 -120 -128 -120 q-124 0 -171 214zM126 479l42 -274q37 -84 52 -85h8q125 90 137 154l9 675h-9l-17 17l8 26l-25 17l-9 -8l-17 25l9 9v8q-43 0 -43 60h-17v9q-111 0 -111 -325l-9 -9l9 -25l-17 -35l17 -51l-9 -43l9 -51l-17 -17v-77z" />
<glyph unicode="e" horiz-adv-x="455" d="M40 720q41 632 89 632q0 25 79 49q35 0 89 -89l29 20h10l20 -20v-29h-10l-30 9v-9q38 -47 59 -484q0 -118 -98 -118h-138q0 -622 98 -622q60 0 99 188l-20 19q0 20 30 20v30l10 49q-30 0 -30 20v10l20 19h20l49 -9v-20l-49 -237q-82 -148 -158 -148q-143 0 -168 720z M139 730h10l69 30l9 -10h10q52 0 79 59v187q0 192 -79 346h-19q-79 -330 -79 -533v-79z" />
<glyph unicode="f" horiz-adv-x="361" d="M40 1141v85l17 17l43 -9v9l8 179l-8 76h8l-8 9q3 336 85 366h17q119 -28 119 -111v-8q0 -21 -77 -26l-8 26l17 51l-34 8q-43 0 -43 -357v-213l9 -9v-8l8 8h60q0 52 17 52h17q17 0 25 -69q-20 -59 -34 -59h-8q-17 0 -17 25h-9q-68 -21 -68 -68l-25 -604l17 -358h8v-25h-17 l9 -34l-9 -34v-9h51l17 -17v-8q0 -17 -42 -17v-9l-60 9h-59l-17 17q17 34 42 34v25l-8 34l8 9v8l-8 26v17h8l-8 59v264l-9 119l9 35l-9 8v9l9 51l-9 25l17 102l-8 9l8 68l9 264q-14 0 -43 -60h-8zM210 1141v8h17v-8h-17z" />
<glyph unicode="g" horiz-adv-x="432" d="M40 562v63l9 72l-9 72v9q0 482 144 631h27l27 -18q0 61 90 81h9q55 -6 55 -27v-18q0 -72 -73 -72l-36 27l-9 -9v-18q40 0 91 -280l-10 -225l10 -189q-28 -433 -64 -433l9 -9v-18q0 -18 -54 -36l-18 -27q127 -20 127 -126l9 -108q0 -379 -181 -379h-18q-117 24 -117 109 q45 243 153 243h18q19 -4 36 -45q-18 -54 -36 -54h-27l-27 18l-9 -45l27 -63l-9 -9h-9l-27 18v-9l18 -90h63q72 0 72 351v45l-18 90h-99l-18 18v54q-79 0 -126 406zM121 508q27 -40 27 -82l-18 -18v-18q0 -77 36 -180q18 0 27 54h18q18 0 18 -54h9q36 387 36 604v144 q0 130 -27 298l-9 -9h-9l-18 18v45l9 9q-13 36 -27 36h-9q-63 -272 -63 -649l18 -18q-18 0 -18 -27l9 -108q27 0 27 -18v-18h-9l-27 18v-27z" />
<glyph unicode="h" horiz-adv-x="480" d="M40 34q0 26 51 26l-8 51l25 383l-8 60l17 119q-43 0 -43 17l17 17l9 -9h8l9 43l-9 34l17 26l-8 8l8 60l-8 59h17v43l-9 25l9 26l8 545v85l-17 26v25l17 26v102q-34 0 -34 17l17 17h77l25 -34q-25 -93 -25 -537v-178q91 119 145 119q51 -18 51 -68v-43l-34 -596v-111 q0 -44 25 -76v-17l-17 -26q0 -247 34 -247t34 -17v-8l-17 -17h-119l-17 17q0 27 34 76v68l-8 154l25 706q-25 0 -25 17l17 26v17l-9 60h-26q-110 -159 -110 -631l-9 -170l9 -136l-9 -136v-26q43 -6 43 -25l-17 -26l-43 9h-93zM415 119v17h8v-17h-8z" />
<glyph unicode="i" horiz-adv-x="273" d="M40 29v10q0 19 58 19v9l-10 126l10 96l-10 96l10 135l-10 116q19 0 19 28l10 626q0 26 -67 39v48l19 19h29q68 0 106 -19l9 10l10 -10v-19l-19 -19l9 -116l-19 -491l19 -19l-19 -29l10 -135l-10 -58l10 -58q-29 0 -29 -106v-106l9 -38l-9 -10l9 -67v-48q49 -3 49 -29v-10 l-20 -19h-29l-9 10l-10 -10h-67q-50 0 -58 29zM88 1753q0 26 68 67h28q49 -22 49 -96q-22 -116 -39 -116q-96 50 -96 77z" />
<glyph unicode="j" horiz-adv-x="497" d="M40 -346l18 18l36 -36q209 0 209 399v199l9 173l-9 9v9q18 111 18 427v72l-9 145l9 10v9l-9 99v91l9 82q0 45 -81 45l-9 9v37q18 36 45 36q62 0 136 -36l18 -754q18 0 18 -45h9q-13 -109 -27 -109l9 -9l-45 -726l-9 -9v-9l9 -36q-24 -3 -136 -154l-55 -19h-45 q-75 0 -118 64v9zM49 -291l18 18l27 -28l-18 -18h-9l-18 18v10zM267 1696q0 18 27 18l-9 9v54q0 73 73 73q63 -27 63 -82q0 -81 -72 -81h-28l-9 9h-9l-18 -18zM394 -282l18 18l18 -18l-18 -19z" />
<glyph unicode="k" horiz-adv-x="572" d="M40 31v8q0 26 51 26v8l17 1019l-9 9l9 42v94l-9 34l17 42l-8 93l8 9h9q-17 86 -17 272l8 110l-8 -8h-9l-8 8v9l8 8q-34 13 -34 26v17l60 8l68 -17l-17 -1155v-8h8l213 492q-26 0 -26 17v9q0 23 111 34q38 -17 42 -34q0 -17 -25 -17q-37 -60 -68 -60q-60 -119 -94 -237 q34 0 34 -17l-25 -26l-9 9h-8l-9 -26l9 -8v-9l-34 -102v-42q52 -269 110 -323l-8 -34l25 -76h-8q13 -60 42 -60l-8 -42l25 -94h43l16 -17v-8l-16 -17h-119l17 -25l-9 -9h-34v26l9 8v8q-34 0 -34 17t42 17q-93 338 -136 646h-8q-47 -92 -60 -204l-8 -9v-416q51 -8 51 -25 q-14 -34 -60 -34h-68q-45 0 -59 34zM193 472v17h8l17 -17l-8 -8h-9z" />
<glyph unicode="l" horiz-adv-x="333" d="M40 1840l25 25l76 -8l25 8l43 -17l-9 -59v-253l-8 -388l8 -42h-8l8 -8v-26l-8 -8v-9l8 -8h9l-9 -42v-42l9 -34l-9 -34v-59l-8 -8l8 -9l-8 -50l17 -515v-42q25 0 25 -17v-16l-34 -9l17 -51v-50h51l25 -25v-17q0 -20 -42 -26l-25 9l-119 -17l-8 8v26l42 42l-8 8v9l8 8v9 l-8 8v8l8 9l-8 25l-9 472l9 178l-9 25l9 168l-17 726l8 59l-59 33z" />
<glyph unicode="m" horiz-adv-x="1095" d="M40 1362v39l30 30q161 0 177 -39l-10 -50v-157h10q80 226 246 226q71 0 108 -216h10q59 226 217 226h69q66 0 89 -354l19 -79l-10 -306v-236l10 -394q50 0 50 -20q0 -29 -148 -39l-30 39q0 20 30 20v138l19 827q0 114 -29 148l20 69q-27 128 -69 128l-59 10 q-87 0 -188 -305l30 -976q22 0 79 -59l-30 -29l-39 10l-30 -10q-88 8 -88 29l9 10l30 10v10q0 393 -30 739l-19 19q0 20 29 20v20h-10l10 69v49l-10 69h10l-10 10l10 39l-19 79l9 79q-25 59 -68 59q-129 0 -207 -217l10 -29l-20 -20v-158l10 -364l-10 -345v-69h29v-20h-29 v-19q39 -5 39 -30l-29 -29h-128l-20 19q4 21 49 40l-10 59l-19 1172l9 39h-78zM848 1313v10l10 10h9l10 -10v-10l-10 -10h-9zM976 1254l19 19l20 -19l-20 -20z" />
<glyph unicode="n" horiz-adv-x="741" d="M40 1373v20q0 30 110 30h40q30 0 30 -180h10q87 170 221 170q98 0 200 -261l-10 -10l10 -10l-10 -30l20 -230l-10 -331l10 -461l-20 -20q40 0 60 -40l-20 -20h-50l-60 10l-40 -10l-10 10v10q21 40 50 40l10 1002v40q-43 241 -170 241l-100 -40q0 -40 -41 -40 q0 -31 -40 -60l10 -61l-10 -60l20 -70l-30 -160v-10q30 0 30 -20l-10 -10h-10l-10 10v-10l20 -421v-221l-10 -70q71 -5 71 -60l-41 -30h-160l-20 20v30l50 60v20l-30 -20l-10 10v10l20 20l10 -10h10l10 261l-20 922q-80 10 -80 40zM391 1283v30h10l20 -20l-10 -10h-20z" />
<glyph unicode="o" horiz-adv-x="496" d="M40 661q0 752 162 752l11 10h10q193 -66 193 -396q10 -319 40 -528l-10 -30l10 -61q0 -306 -172 -437q-214 0 -214 264q-20 106 -30 426zM101 733q30 -660 81 -660q7 -31 61 -51q71 20 71 81v20l-10 10v11q44 0 51 863q-49 355 -132 355h-10q-83 0 -112 -629z" />
<glyph unicode="p" horiz-adv-x="590" d="M40 1356l28 28h83l47 9q18 -17 18 -93l93 84h46q97 0 186 -548l9 -194v-186q-31 -380 -157 -380h-38q-45 0 -129 74l9 -93v-19q0 -291 -28 -454q19 -27 19 -74h55l19 -18v-10q-10 -28 -56 -28h-121l-18 19q0 19 28 19l-10 27l19 56v74l-19 19l10 65l-10 83h10l-10 10v18 l10 56l-10 28l10 9v9l-10 9l10 46l-19 242l19 547l-10 306l-9 9v10l9 37l-9 9v9l9 10l-9 46v93q-74 11 -74 37zM198 623l18 -315v-38q95 -120 158 -120q83 124 83 306v74q0 291 -27 343l9 38q-16 93 -56 129l28 38v46q-18 15 -37 148l-37 38h-9q-107 -108 -121 -214l19 -56 v-55l-19 -74l19 -19v-9l-19 -28z" />
<glyph unicode="q" horiz-adv-x="558" d="M40 532q21 740 135 848l55 18q117 -33 117 -90h9q0 99 18 99h36l90 9l18 -27v-18l-18 -18h-45l18 -1065h18v-36q0 -18 -27 -18v-45l-9 -604q54 -9 54 -27v-9l-27 -28h-27q-144 0 -144 28q0 27 63 27v18q-27 0 -27 18l27 9l18 586v9h-9q0 -57 -108 -81q-173 0 -226 288z M103 649q36 0 36 -54l-18 -18v-27l18 -36l-18 -27l27 -64v-36l-9 -45l9 -9h9q0 27 18 27l18 -27v-9q0 -18 -27 -18v-9q33 -99 118 -99h36q33 0 72 162q-19 966 -99 966q-33 27 -63 27q-55 -101 -127 -704zM464 -298h18v-9h-18v9zM473 1308v27l18 -18v-9h-18z" />
<glyph unicode="r" horiz-adv-x="479" d="M40 1373v20q0 15 40 30q110 0 110 -70v-60h10q32 120 139 120q100 -34 100 -140v-60l-30 -29h-20l-30 29v20l20 80l-10 40h-70q-60 0 -99 -239l10 -649l-10 -239l10 -10h10l-10 -70v-20l20 -40l-10 -10v-20h10v20l10 -10h10l-10 -10l10 -50l-10 -10v-10l-50 10h-80 l-30 30q0 25 40 30v30l-10 1098q-30 0 -30 19q0 20 30 20v90zM270 1293v10h29v-30h-10z" />
<glyph unicode="s" horiz-adv-x="463" d="M40 61v10q0 61 71 110h10q20 0 20 -60l40 -30h50q0 40 21 40l30 -10v10q0 30 20 30l-10 51q0 20 50 20l10 40q0 321 -191 615q-71 201 -71 363q0 171 121 171l121 -50l10 10h20l21 -20v-21q-39 -90 -71 -100h-20l-20 20v30l10 10v10l-81 51h-10q-37 0 -50 -131 q24 0 50 -131l-10 -11l20 -20l-10 -60q232 -495 232 -635q0 -320 -192 -373l-30 -10q-61 18 -121 71l-30 -11z" />
<glyph unicode="t" horiz-adv-x="460" d="M40 1202l9 9v9l-9 35l27 18q17 0 17 -27h62l-9 89v168l9 168l-26 97q13 0 44 88l9 9h8l27 -18l9 -371v-230h26q75 0 106 27l9 -9v-97h-26q0 26 -62 26h-9l-18 -17l-9 8h-17l9 -397v-398q0 -336 97 -336l26 9l-8 44l26 18h18l35 -36q-26 -88 -88 -88h-36q-104 0 -141 168 q-11 195 -27 230l18 53v35q-35 0 -35 18l35 53v18h-9l9 106v397l-9 36l9 9v8l-9 9v9l9 44h-9l-26 -17l-18 17h-18l-26 -17zM199 1900l18 18l9 -9v-9h-27z" />
<glyph unicode="u" horiz-adv-x="544" d="M40 1347q0 53 39 69h70l39 -39v-10q0 -20 -30 -20l10 -247l-10 -128l10 -40l-19 -19l-10 -395q0 -474 69 -474l39 -10q109 67 109 444l-20 69l-10 494l10 355l10 10h79l20 -20v-29q0 -30 -40 -30v-227l-10 -89q20 -229 30 -967l10 -10h10l49 10l10 -10v-30l-20 -19h-89 q-26 0 -29 49q-63 -49 -119 -49q-121 0 -148 158q-20 128 -20 345v464l-9 148l9 119v108q0 20 -39 20z" />
<glyph unicode="v" horiz-adv-x="612" d="M40 1388v30l150 20l21 -30v-30l-11 -10v-10q31 0 31 -20l-10 -10h-10q-21 0 -21 30l-10 -10h-10l101 -582l10 -10l-10 -50l70 -542h20q20 62 70 1114q20 0 20 70v10q-50 0 -50 30q0 20 60 40q111 -10 111 -30v-10q0 -20 -51 -20v-70q-30 -91 -70 -602l20 -40l-20 -71 l10 -10v-10l-10 -60v-20l30 -40q0 -20 -30 -20q0 -60 -20 -60l10 -10l-30 -311l40 -40l-20 -20h-110l-30 30l20 30l-90 421h-31v10q0 20 31 20v60l-21 30l11 41q-61 502 -131 732q-40 0 -40 30z" />
<glyph unicode="w" horiz-adv-x="913" d="M40 1376v10q6 30 79 30h50l40 -40q0 -20 -50 -20l129 -1130h20q52 570 89 704l-10 10v20l20 20h50l29 -30q0 -20 -29 -20v-50q0 -127 138 -515l10 -10l-10 -30l20 -49h-10l10 -40h10l139 1111l-40 9v30q0 30 109 30h10l30 -30q0 -20 -30 -20l10 -69q-39 0 -89 -595 q-50 -296 -50 -446v-109q0 -71 -19 -109q39 0 39 -20t-30 -20l-9 -10v-10q-110 10 -110 30v10l10 10l-10 10v9l10 40q-119 383 -178 754h-10l-20 -228l10 -10v-10l-10 -10l20 -89q-36 0 -79 -427l-10 -10q69 -13 69 -39q-48 -30 -129 -30q-59 10 -59 30t29 20 q-29 148 -79 823q-43 317 -59 317q-30 0 -30 20h30v30l-20 29l10 60zM585 395v9l20 20v-29h-20z" />
<glyph unicode="x" horiz-adv-x="584" d="M40 1383v20l128 20q50 -13 50 -30v-39q-40 0 -40 -50q20 0 30 -118l-10 -40l69 -335h10l10 49v30l-10 9v10l10 10h10l-10 30l30 168l-10 29q39 0 39 99l40 109h-10l-30 29q6 30 79 30h10l30 -30q-63 -43 -79 -187l-79 -563l118 -395h20v-109q30 -31 30 -89l49 10l20 -59 l-10 -10h-158l-20 20l20 79q-89 265 -89 345h-10q-39 -249 -39 -375l19 -20v-19q0 -27 -98 -40q-79 16 -79 40v19l19 20h50l10 49l-10 10l29 10v10l-19 30q33 0 88 405l-158 790q-49 0 -49 29z" />
<glyph unicode="y" horiz-adv-x="571" d="M40 1374v29l20 20h127l20 -20v-9q0 -30 -39 -30l19 -29h-29v29h-20v-10l187 -579h9l69 589l-29 30q0 16 68 29q89 -12 89 -39q0 -20 -49 -20q-40 -133 -59 -373l19 -19v-10h-29l-30 -295l10 -68l-10 -236v-10q0 -61 30 -137l-20 -59l20 -29l-20 -59v-10q40 0 40 -20v-19 l-20 -20h-88q-51 0 -59 29v10q0 20 29 20l10 10v10l10 402l10 49h-30v10q0 19 30 19l-30 148l10 9q-15 3 -157 471q-37 187 -108 187z" />
<glyph unicode="z" horiz-adv-x="506" d="M40 8v10l89 436q26 121 50 139l-10 10v10q34 23 59 178l129 506l-10 30l10 29h-10l-158 10h-20v-59q30 0 30 -20q0 -23 -70 -30l-20 99q21 60 40 60h218q99 -12 99 -40l-29 -49h10q-100 -276 -169 -595h30l-20 -20l-10 10l-159 -665q257 -10 288 -29q0 79 20 79h30v-99 q0 -30 -110 -30l-228 30l-69 -10z" />
<glyph unicode="{" horiz-adv-x="291" d="M40 965q69 85 72 252q-14 313 -36 364l9 8l-8 43l9 25l-7 42v51q49 101 104 100l8 -1l8 -8l9 8h8l17 -17q-68 -45 -72 -252q-6 -353 51 -458l-26 -7v-26q-1 -42 -78 -117q90 -155 89 -221l7 -76l-9 -34l7 -68l-9 -33l8 -34l-1 -17q0 -33 -52 -84v-8l9 8h17l-1 -25 q0 -17 -34 -17q-4 -235 112 -340v-8l-17 -16l-34 1q-159 73 -156 255l39 278l6 313q0 51 -49 119z" />
<glyph unicode="|" />
<glyph unicode="}" horiz-adv-x="308" d="M40 1825v8l17 17h34q160 -71 160 -253l-34 -279v-313q0 -51 51 -118q-67 -86 -67 -253q20 -313 42 -364l-9 -8l9 -42l-9 -26l9 -42v-51q-47 -101 -102 -101h-8l-9 8l-8 -8h-8l-17 17q67 46 67 253q0 353 -59 456l25 9v25q0 43 77 119q-93 153 -93 219l-9 76l9 34l-9 68 l9 33l-9 34v17q0 33 51 85v8l-9 -8h-17v25q0 17 34 17q0 235 -118 338z" />
<glyph unicode="~" />
<glyph unicode="&#xa1;" horiz-adv-x="316" d="M40 -125q1 13 20 11l2 26q99 762 110 921l7 6l19 -1q46 -3 58 -959q-20 -162 -83 -158q-110 8 -103 119zM79 918l1 7q1 15 34 17l11 -20v-7l-21 -18h-6zM93 1015l1 27q18 110 99 104q83 -39 79 -97l-3 -33q-19 -96 -91 -91q-90 21 -85 90zM220 778l1 6l14 12l6 -7l-1 -6 l-7 -6z" />
<glyph unicode="&#xa2;" />
<glyph unicode="&#xa3;" />
<glyph unicode="&#xa4;" />
<glyph unicode="&#xa5;" />
<glyph unicode="&#xa6;" />
<glyph unicode="&#xa7;" />
<glyph unicode="&#xa8;" />
<glyph unicode="&#xa9;" />
<glyph unicode="&#xaa;" />
<glyph unicode="&#xab;" />
<glyph unicode="&#xac;" />
<glyph unicode="&#xad;" horiz-adv-x="672" d="M40 640v41q0 20 31 20l81 -10l347 20h72q61 -6 61 -30v-51l-10 -11v-10l-276 -10l-286 10z" />
<glyph unicode="&#xae;" />
<glyph unicode="&#xaf;" />
<glyph unicode="&#xb0;" />
<glyph unicode="&#xb1;" />
<glyph unicode="&#xb2;" />
<glyph unicode="&#xb3;" />
<glyph unicode="&#xb4;" />
<glyph unicode="&#xb5;" />
<glyph unicode="&#xb6;" />
<glyph unicode="&#xb7;" />
<glyph unicode="&#xb8;" />
<glyph unicode="&#xb9;" />
<glyph unicode="&#xba;" />
<glyph unicode="&#xbb;" />
<glyph unicode="&#xbc;" />
<glyph unicode="&#xbd;" />
<glyph unicode="&#xbe;" />
<glyph unicode="&#xbf;" horiz-adv-x="509" d="M42 -57q-2 105 90 313q30 130 66 131l20 20l7 21h-14v20l99 158l19 102q-2 111 -23 197l40 21q48 1 50 -142q4 -254 -248 -704l-24 -156q21 -245 105 -243h14q67 48 66 103q94 62 91 266v27q-2 104 -71 182v14q-1 29 40 48q97 -119 100 -318v-6q-13 -272 -164 -349 q-2 -14 -48 -21l-20 -1q-158 -2 -195 290v27zM157 406l20 14l7 -6v-7l-13 -14zM221 1074q-1 102 108 103q68 -24 69 -87l1 -41q1 -70 -94 -90q-69 -1 -83 101zM275 -230h7l14 -14l-7 -7h-13z" />
<glyph unicode="&#xc0;" horiz-adv-x="648" d="M40 41v8q0 14 74 58q66 1235 99 1490l-8 42l8 8v8l-8 8v9l16 123q-25 0 -25 17v8l58 41h25q61 0 66 -25l-9 -24q27 -233 75 -462l-9 -8v-8q25 0 25 -33l-8 -25l16 -140v-8q25 -35 25 -66l-17 -49v-17l50 -255v-8l-17 -17l25 -189q25 0 25 -16v-17l-17 -16 q52 -392 66 -404q33 -12 33 -25v-16q0 -25 -132 -25q-57 12 -57 33v8q16 20 24 83l-49 370h-8q-75 0 -157 25h-24l-9 -181v-280h42l24 -25v-8q0 -27 -123 -33q-99 11 -99 41zM121 2053q-7 27 31 79l6 2q67 17 221 -155l7 -30l-13 -23q-20 -5 -185 68q-28 -8 -67 59zM213 585 l58 8h107q-32 172 -66 782q-12 0 -25 173h-8q-25 -633 -66 -963zM271 1581h8v25h-8v-25zM304 618v8l8 8h24l17 -16l-8 -9h-9l-8 9h-8l-8 -9z" />
<glyph unicode="&#xc1;" horiz-adv-x="648" d="M40 41v8q0 14 74 58q66 1235 99 1490l-8 42l8 8v8l-8 8v9l16 123q-25 0 -25 17v8l58 41h25q61 0 66 -25l-9 -24q27 -233 75 -462l-9 -8v-8q25 0 25 -33l-8 -25l16 -140v-8q25 -35 25 -66l-17 -49v-17l50 -255v-8l-17 -17l25 -189q25 0 25 -16v-17l-17 -16 q52 -392 66 -404q33 -12 33 -25v-16q0 -25 -132 -25q-57 12 -57 33v8q16 20 24 83l-49 370h-8q-75 0 -157 25h-24l-9 -181v-280h42l24 -25v-8q0 -27 -123 -33q-99 11 -99 41zM102 1983q6 19 154 122q8 28 86 26q27 -8 51 -68l-2 -6q-20 -66 -247 -106l-30 9zM213 585l58 8 h107q-32 172 -66 782q-12 0 -25 173h-8q-25 -633 -66 -963zM271 1581h8v25h-8v-25zM304 618v8l8 8h24l17 -16l-8 -9h-9l-8 9h-8l-8 -9z" />
<glyph unicode="&#xc2;" />
<glyph unicode="&#xc3;" />
<glyph unicode="&#xc4;" />
<glyph unicode="&#xc5;" />
<glyph unicode="&#xc6;" />
<glyph unicode="&#xc7;" horiz-adv-x="577" d="M40 1036q0 361 120 702q62 120 120 120h8q89 0 146 -94v-9q0 -102 -34 -102h-18q-14 0 -25 51l8 34v9l-42 8q-99 -82 -112 -197l-25 -137l8 -34q-43 -184 -43 -351q0 -653 240 -925q51 93 51 129v17q-34 0 -34 17v26l26 25h34q43 0 43 -102l8 8h9l9 -8v-9q-52 0 -52 -86 q-45 -100 -94 -128h-26q-83 0 -145 103l-17 -17q-35 36 -35 68l18 17q-146 298 -146 865zM194 154l9 -26h8v9l-8 26h-9v-9zM242 -112q0 46 34 60h35q43 -22 43 -68v-44q0 -71 -60 -112h-18l-8 61l8 51l-34 35v17z" />
<glyph unicode="&#xc8;" horiz-adv-x="493" d="M40 1512v157q0 182 41 182q47 23 190 33q124 0 124 -116v-24l-24 -17h-17q-18 0 -25 83l-82 8h-83l-25 -25v-297q0 -281 25 -281l-8 -42v-57l16 -67v-24q33 0 33 -91q40 0 58 49h8q66 -63 66 -91v-8l-24 -16l-9 8q0 -33 -16 -33h-17q-20 0 -24 33l-58 -8l-25 8v-8 q0 -257 58 -777h25l24 16q25 -41 116 -41l8 8v9l-8 57l8 9h33q25 -9 25 -50q0 -91 -116 -91l-74 -8q-155 0 -173 41v17q-25 403 -50 1454zM60 2073q-8 27 29 80l6 1q66 19 224 -149l8 -30l-13 -23q-19 -6 -186 63q-28 -8 -68 58z" />
<glyph unicode="&#xc9;" horiz-adv-x="493" d="M40 1512v157q0 182 41 182q47 23 190 33q124 0 124 -116v-24l-24 -17h-17q-18 0 -25 83l-82 8h-83l-25 -25v-297q0 -281 25 -281l-8 -42v-57l16 -67v-24q33 0 33 -91q40 0 58 49h8q66 -63 66 -91v-8l-24 -16l-9 8q0 -33 -16 -33h-17q-20 0 -24 33l-58 -8l-25 8v-8 q0 -257 58 -777h25l24 16q25 -41 116 -41l8 8v9l-8 57l8 9h33q25 -9 25 -50q0 -91 -116 -91l-74 -8q-155 0 -173 41v17q-25 403 -50 1454zM44 1977q4 20 146 132q7 28 84 31q27 -6 55 -64l-1 -6q-16 -67 -240 -122l-30 7z" />
<glyph unicode="&#xca;" />
<glyph unicode="&#xcb;" />
<glyph unicode="&#xcc;" horiz-adv-x="346" d="M46 2079q-6 28 34 78l6 1q68 15 214 -164l6 -30l-14 -22q-20 -4 -182 75q-28 -6 -64 62zM67 1800v32q0 25 82 33q90 -6 90 -25v-8q-17 -32 -41 -32q23 -229 33 -1710q0 -25 25 -25l8 -8v-24q0 -20 -147 -33l-17 82l8 8h9l8 -25h8v17q0 319 -33 319l8 98l-16 57 q25 46 25 107l-41 989l16 123z" />
<glyph unicode="&#xcd;" horiz-adv-x="371" d="M40 1983q6 19 154 122q9 28 86 26q27 -8 51 -68l-2 -6q-20 -66 -247 -106l-30 9zM82 1800v32q0 25 82 33q90 -6 90 -25v-8q-17 -32 -41 -32q23 -229 33 -1710q0 -25 24 -25l9 -8v-24q0 -20 -148 -33l-16 82l8 8h8l9 -25h8v17q0 319 -33 319l8 98l-16 57q24 46 24 107 l-41 989l17 123z" />
<glyph unicode="&#xce;" />
<glyph unicode="&#xcf;" />
<glyph unicode="&#xd0;" />
<glyph unicode="&#xd1;" horiz-adv-x="766" d="M40 1849l50 42h42q111 0 134 -42v-8q-12 -34 -67 -34q142 -335 293 -811q17 0 17 -50l25 16h8l17 -16v-9q0 -17 -34 -17v-8q28 -58 51 -59v201l-9 34l9 8l-9 84v493l9 92q0 53 -67 59l-9 8v17q0 27 84 34q142 0 142 -25v-17l-25 -25v-9h-8l-9 9h-8l-25 -51l8 -83l9 -653 l-9 -209l17 -703l8 9h9l16 -17l-16 -17l-25 17v-34q58 -8 58 -25v-8q0 -25 -109 -42q-100 21 -100 42q14 33 59 33l-9 9v16h9l-9 84v59l9 410q-84 140 -268 669q-17 0 -25 84l-17 16l8 42q-20 0 -50 92h-25q17 -431 17 -1246v-34q0 -192 58 -192l9 -9v-8q0 -50 -134 -50 q-101 0 -101 58l51 25l-9 42v452l-25 25q42 134 42 603l-34 602q-33 0 -33 25zM160 2084v10q0 33 148 59l186 -59l79 29l10 -9v-20q-53 -79 -128 -79l-197 69h-98z" />
<glyph unicode="&#xd2;" horiz-adv-x="548" d="M40 962v51q0 413 102 800q37 60 102 60q104 0 196 -272l-8 -9q76 -254 76 -690v-161q-25 -614 -110 -698q0 -23 -43 -43h-51q-201 31 -255 639zM108 919q21 -318 43 -383l-9 -25h9q34 0 34 -94h-9l9 -8v-26h-17q105 -272 127 -272l9 8h17q6 -51 43 -51v9l-18 25v9 q52 69 52 110l-9 26q40 17 68 613q0 454 -102 775l-43 119l-25 -17l-17 51h-26q-110 -315 -110 -613zM117 2037q-15 24 7 84l5 3q59 36 255 -85l17 -27l-7 -25q-17 -11 -196 12q-25 -15 -81 38z" />
<glyph unicode="&#xd3;" horiz-adv-x="548" d="M40 962v51q0 413 102 800q37 60 102 60q104 0 196 -272l-8 -9q76 -254 76 -690v-161q-25 -614 -110 -698q0 -23 -43 -43h-51q-201 31 -255 639zM102 1983q6 19 154 122q8 28 86 26q27 -8 51 -68l-2 -6q-20 -66 -247 -106l-30 9zM108 919q21 -318 43 -383l-9 -25h9 q34 0 34 -94h-9l9 -8v-26h-17q105 -272 127 -272l9 8h17q6 -51 43 -51v9l-18 25v9q52 69 52 110l-9 26q40 17 68 613q0 454 -102 775l-43 119l-25 -17l-17 51h-26q-110 -315 -110 -613z" />
<glyph unicode="&#xd4;" />
<glyph unicode="&#xd5;" />
<glyph unicode="&#xd6;" />
<glyph unicode="&#xd7;" />
<glyph unicode="&#xd8;" />
<glyph unicode="&#xd9;" horiz-adv-x="769" d="M40 1834l50 42q166 -15 166 -58q0 -17 -25 -17v-8q25 0 25 -17l-17 -16h-8l-8 8h-9l9 8v17h-25l8 -42l-8 -298q0 -996 157 -1245l59 -67v8l-17 25l17 17l41 -50l-25 -8q0 -23 83 -33q0 31 67 33v41l16 17h8l9 -8h8v8l-8 75l8 8h8l9 -8l25 282q0 713 -50 1087l8 25l-8 50 v91q-37 0 -50 33v25l8 9v8l83 -8h75v-25l-42 -58l-16 16q0 -173 41 -705v-432l9 -249q-15 0 -42 -199q-53 -216 -158 -216q-231 0 -332 324l-33 299l9 33q-67 921 -67 1120zM232 2035q-9 27 25 81l6 2q66 22 231 -139l10 -29l-12 -24q-19 -7 -189 55q-28 -10 -71 54z" />
<glyph unicode="&#xda;" horiz-adv-x="769" d="M40 1834l50 42q166 -15 166 -58q0 -17 -25 -17v-8q25 0 25 -17l-17 -16h-8l-8 8h-9l9 8v17h-25l8 -42l-8 -298q0 -996 157 -1245l59 -67v8l-17 25l17 17l41 -50l-25 -8q0 -23 83 -33q0 31 67 33v41l16 17h8l9 -8h8v8l-8 75l8 8h8l9 -8l25 282q0 713 -50 1087l8 25l-8 50 v91q-37 0 -50 33v25l8 9v8l83 -8h75v-25l-42 -58l-16 16q0 -173 41 -705v-432l9 -249q-15 0 -42 -199q-53 -216 -158 -216q-231 0 -332 324l-33 299l9 33q-67 921 -67 1120zM267 1983q6 19 154 122q8 28 86 26q27 -8 51 -68l-2 -6q-20 -66 -247 -106l-30 9z" />
<glyph unicode="&#xdb;" />
<glyph unicode="&#xdc;" />
<glyph unicode="&#xdd;" />
<glyph unicode="&#xde;" />
<glyph unicode="&#xdf;" />
<glyph unicode="&#xe0;" horiz-adv-x="644" d="M40 1069v20l20 20l20 -20l-20 -20h-20zM50 1168q0 238 168 238l109 10q107 0 168 -119h30v-20h-30q20 -38 20 -109l-39 -782v-158h10l9 10h10l10 -10v-10l-29 -10v-10q0 -54 49 -79q0 39 20 39t20 -49l29 -30v-39q-16 -40 -69 -40h-30q-99 53 -99 109q-105 -89 -158 -89 h-10q-84 0 -129 188q-49 0 -49 20v10q0 24 39 29v10q0 271 129 406q49 116 218 307v139q-59 218 -149 218h-118q-26 0 -40 -80v-9l10 9h10l20 -19l-10 -10l20 -60q0 -63 -90 -79zM169 1752q-9 27 26 81l5 2q66 22 231 -139l10 -29l-11 -24q-20 -6 -190 54q-27 -9 -71 55z M218 149q30 0 30 -50h20l39 59h10l20 -19q0 39 40 39v10q-30 0 -30 20l20 20h20v-30h9v594h-9l-80 -178q0 -30 -19 -30l9 -49q-23 -70 -49 -70v-19q-30 -133 -30 -297z" />
<glyph unicode="&#xe1;" horiz-adv-x="644" d="M40 1069v20l20 20l20 -20l-20 -20h-20zM50 1168q0 238 168 238l109 10q107 0 168 -119h30v-20h-30q20 -38 20 -109l-39 -782v-158h10l9 10h10l10 -10v-10l-29 -10v-10q0 -54 49 -79q0 39 20 39t20 -49l29 -30v-39q-16 -40 -69 -40h-30q-99 53 -99 109q-105 -89 -158 -89 h-10q-84 0 -129 188q-49 0 -49 20v10q0 24 39 29v10q0 271 129 406q49 116 218 307v139q-59 218 -149 218h-118q-26 0 -40 -80v-9l10 9h10l20 -19l-10 -10l20 -60q0 -63 -90 -79zM165 1643q1 20 121 155q2 29 78 45q28 -2 65 -54v-6q-4 -69 -215 -162l-31 2zM218 149 q30 0 30 -50h20l39 59h10l20 -19q0 39 40 39v10q-30 0 -30 20l20 20h20v-30h9v594h-9l-80 -178q0 -30 -19 -30l9 -49q-23 -70 -49 -70v-19q-30 -133 -30 -297z" />
<glyph unicode="&#xe2;" />
<glyph unicode="&#xe3;" />
<glyph unicode="&#xe4;" horiz-adv-x="644" d="M40 1069v20l20 20l20 -20l-20 -20h-20zM50 1168q0 238 168 238l109 10q107 0 168 -119h30v-20h-30q20 -38 20 -109l-39 -782v-158h10l9 10h10l10 -10v-10l-29 -10v-10q0 -54 49 -79q0 39 20 39t20 -49l29 -30v-39q-16 -40 -69 -40h-30q-99 53 -99 109q-105 -89 -158 -89 h-10q-84 0 -129 188q-49 0 -49 20v10q0 24 39 29v10q0 271 129 406q49 116 218 307v139q-59 218 -149 218h-118q-26 0 -40 -80v-9l10 9h10l20 -19l-10 -10l20 -60q0 -63 -90 -79zM168 1751l53 54h43q21 0 43 -64q-14 -86 -86 -86q-53 55 -53 96zM218 149q30 0 30 -50h20 l39 59h10l20 -19q0 39 40 39v10q-30 0 -30 20l20 20h20v-30h9v594h-9l-80 -178q0 -30 -19 -30l9 -49q-23 -70 -49 -70v-19q-30 -133 -30 -297zM328 1698v43q7 64 32 64h43q22 -9 65 -139l-11 -11h-11l-11 11v10l-10 -10h-65z" />
<glyph unicode="&#xe5;" />
<glyph unicode="&#xe6;" />
<glyph unicode="&#xe7;" horiz-adv-x="505" d="M40 724v71q0 439 172 568l91 30q71 0 122 -243h10q-10 -101 -30 -101h-51l-30 30v41q2 50 20 50q-10 162 -41 162h-20q-81 -151 -81 -324v-172l-10 -193l10 -30l-10 -10v-10l10 -41l-10 -30l10 -61v-20l-10 -10l20 -31l-20 -101q19 -243 132 -243h10q43 16 81 132l-10 30 l10 10q-34 0 -51 51q21 61 41 61h30q30 -11 30 -61v-41q0 -208 -152 -253h-70q-203 129 -203 739zM242 -112q0 46 34 60h35q43 -22 43 -68v-44q0 -71 -60 -112h-18l-8 61l8 51l-34 35v17z" />
<glyph unicode="&#xe8;" horiz-adv-x="461" d="M47 720q41 632 89 632q0 25 79 49q35 0 88 -89l30 20h10l20 -20v-29h-10l-30 9v-9q37 -47 59 -484q0 -118 -98 -118h-139q0 -622 99 -622q59 0 99 188l-20 19q0 20 30 20v30l10 49q-30 0 -30 20v10l20 19h19l50 -9v-20l-50 -237q-81 -148 -157 -148q-143 0 -168 720z M49 1752q-9 26 25 81l6 2q65 22 231 -139l10 -29l-12 -24q-19 -6 -189 54q-27 -9 -71 55zM145 730h10l69 30l10 -10h10q52 0 79 59v187q0 192 -79 346h-20q-79 -330 -79 -533v-79z" />
<glyph unicode="&#xe9;" horiz-adv-x="466" d="M40 1685q5 20 146 132q7 28 84 31q27 -6 55 -64l-1 -6q-16 -67 -240 -122l-30 7zM51 720q41 632 89 632q0 25 79 49q35 0 89 -89l29 20h10l20 -20v-29h-10l-29 9v-9q37 -47 59 -484q0 -118 -99 -118h-138q0 -622 99 -622q59 0 98 188l-19 19q0 20 29 20v30l10 49 q-30 0 -30 20v10l20 19h20l49 -9v-20l-49 -237q-82 -148 -158 -148q-143 0 -168 720zM150 730h10l69 30l10 -10h10q51 0 79 59v187q0 192 -79 346h-20q-79 -330 -79 -533v-79z" />
<glyph unicode="&#xea;" />
<glyph unicode="&#xeb;" />
<glyph unicode="&#xec;" horiz-adv-x="351" d="M47 1784q-7 27 31 79l6 2q67 17 220 -155l8 -30l-13 -23q-20 -5 -185 68q-28 -8 -67 59zM62 29v10q0 19 57 19v9l-9 126l9 96l-9 96l9 135l-9 116q19 0 19 28l10 626q0 26 -68 39v48l20 19h28q69 0 106 -19l10 10l10 -10v-19l-20 -19l10 -116l-19 -491l19 -19l-19 -29 l9 -135l-9 -58l9 -58q-29 0 -29 -106v-106l10 -38l-10 -10l10 -67v-48q48 -3 48 -29v-10l-19 -19h-29l-10 10l-9 -10h-68q-50 0 -57 29z" />
<glyph unicode="&#xed;" horiz-adv-x="365" d="M40 1685q5 20 146 132q7 28 84 31q27 -6 55 -64l-1 -6q-16 -67 -240 -122l-30 7zM71 29v10q0 19 58 19v9l-10 126l10 96l-10 96l10 135l-10 116q20 0 20 28l9 626q0 26 -67 39v48l19 19h29q68 0 106 -19l10 10l9 -10v-19l-19 -19l10 -116l-20 -491l20 -19l-20 -29 l10 -135l-10 -58l10 -58q-29 0 -29 -106v-106l10 -38l-10 -10l10 -67v-48q48 -3 48 -29v-10l-19 -19h-29l-10 10l-10 -10h-67q-50 0 -58 29z" />
<glyph unicode="&#xee;" />
<glyph unicode="&#xef;" horiz-adv-x="380" d="M40 1751l54 54h42q22 0 43 -65q-13 -85 -85 -85q-54 55 -54 96zM68 29v10q0 19 57 19v10l-9 125l9 96l-9 96l9 135l-9 116q19 0 19 29l10 626q0 25 -68 38v48l19 20h29q69 0 106 -20l10 10l10 -10v-19l-20 -19l10 -116l-19 -491l19 -19l-19 -29l9 -135l-9 -58l9 -57 q-29 0 -29 -106v-106l10 -39l-10 -9l10 -68v-48q48 -3 48 -29v-9l-19 -20h-29l-10 10l-9 -10h-68q-50 0 -57 29zM201 1698v42q6 65 32 65h43q22 -9 64 -140l-11 -10h-10l-11 10v11l-11 -11h-64z" />
<glyph unicode="&#xf0;" />
<glyph unicode="&#xf1;" horiz-adv-x="757" d="M40 1268v30h10l20 -20l-10 -10h-20zM56 1366v20q0 30 110 30h41q30 0 30 -180h10q87 170 220 170q98 0 201 -261l-10 -10l10 -10l-10 -30l20 -230l-10 -331l10 -461l-20 -20q40 0 60 -40l-20 -20h-50l-61 10l-40 -10l-10 10v10q21 40 50 40l10 1002v40q-43 241 -170 241 l-100 -40q0 -40 -40 -40q0 -31 -40 -60l10 -61l-10 -60l20 -70l-30 -160v-10q30 0 30 -20l-10 -10h-10l-10 10v-10l20 -421v-221l-10 -70q70 -5 70 -60l-40 -30h-161l-20 20v30l50 60v20l-30 -20l-10 10v10l20 20l10 -10h10l10 261l-20 922q-80 10 -80 40zM244 1559 q0 94 138 120q35 0 101 -64h10l55 46q18 0 18 -28q-39 -83 -92 -83l-129 46h-36q-18 0 -37 -55h-9zM456 1642v9l18 19h9v-28h-27z" />
<glyph unicode="&#xf2;" horiz-adv-x="496" d="M40 661q0 752 162 752l11 10h10q193 -66 193 -396q10 -319 40 -528l-10 -30l10 -61q0 -306 -172 -437q-214 0 -214 264q-20 106 -30 426zM94 1762q-12 26 17 83l5 3q63 28 244 -115l13 -28l-10 -25q-18 -8 -193 35q-26 -12 -76 47zM101 733q30 -660 81 -660q7 -31 61 -51 q71 20 71 81v20l-10 10v11q44 0 51 863q-49 355 -132 355h-10q-83 0 -112 -629z" />
<glyph unicode="&#xf3;" horiz-adv-x="496" d="M40 661q0 752 162 752l11 10h10q193 -66 193 -396q10 -319 40 -528l-10 -30l10 -61q0 -306 -172 -437q-214 0 -214 264q-20 106 -30 426zM81 1685q4 20 146 132q7 28 84 31q27 -6 55 -64l-1 -6q-16 -67 -240 -122l-30 7zM101 733q30 -660 81 -660q7 -31 61 -51 q71 20 71 81v20l-10 10v11q44 0 51 863q-49 355 -132 355h-10q-83 0 -112 -629z" />
<glyph unicode="&#xf4;" />
<glyph unicode="&#xf5;" />
<glyph unicode="&#xf6;" />
<glyph unicode="&#xf7;" />
<glyph unicode="&#xf8;" />
<glyph unicode="&#xf9;" horiz-adv-x="544" d="M40 1347q0 53 39 69h70l39 -39v-10q0 -20 -30 -20l10 -247l-10 -128l10 -40l-19 -19l-10 -395q0 -474 69 -474l39 -10q109 67 109 444l-20 69l-10 494l10 355l10 10h79l20 -20v-29q0 -30 -40 -30v-227l-10 -89q20 -229 30 -967l10 -10h10l49 10l10 -10v-30l-20 -19h-89 q-26 0 -29 49q-63 -49 -119 -49q-121 0 -148 158q-20 128 -20 345v464l-9 148l9 119v108q0 20 -39 20zM177 1780q-3 28 42 73l7 1q68 7 194 -186l3 -31l-16 -21q-20 -2 -173 95q-29 -3 -57 69z" />
<glyph unicode="&#xfa;" horiz-adv-x="544" d="M40 1347q0 53 39 69h70l39 -39v-10q0 -20 -30 -20l10 -247l-10 -128l10 -40l-19 -19l-10 -395q0 -474 69 -474l39 -10q109 67 109 444l-20 69l-10 494l10 355l10 10h79l20 -20v-29q0 -30 -40 -30v-227l-10 -89q20 -229 30 -967l10 -10h10l49 10l10 -10v-30l-20 -19h-89 q-26 0 -29 49q-63 -49 -119 -49q-121 0 -148 158q-20 128 -20 345v464l-9 148l9 119v108q0 20 -39 20zM165 1643q1 20 121 155q2 29 78 45q28 -2 65 -54v-6q-4 -69 -215 -162l-31 2z" />
<glyph unicode="&#xfb;" />
<glyph unicode="&#xfc;" horiz-adv-x="544" d="M40 1347q0 53 39 69h70l39 -39v-10q0 -20 -30 -20l10 -247l-10 -128l10 -40l-19 -19l-10 -395q0 -474 69 -474l39 -10q109 67 109 444l-20 69l-10 494l10 355l10 10h79l20 -20v-29q0 -30 -40 -30v-227l-10 -89q20 -229 30 -967l10 -10h10l49 10l10 -10v-30l-20 -19h-89 q-26 0 -29 49q-63 -49 -119 -49q-121 0 -148 158q-20 128 -20 345v464l-9 148l9 119v108q0 20 -39 20zM85 1751l54 54h43q21 0 42 -65q-13 -85 -85 -85q-54 55 -54 96zM246 1698v42q7 65 32 65h43q22 -9 64 -140l-11 -10h-10l-11 10v11l-11 -11h-64z" />
<glyph unicode="&#xfd;" />
<glyph unicode="&#xfe;" />
<glyph unicode="&#xff;" />
<glyph unicode="&#x152;" />
<glyph unicode="&#x153;" />
<glyph unicode="&#x178;" />
<glyph unicode="&#x2c6;" />
<glyph unicode="&#x2dc;" />
<glyph unicode="&#x2000;" horiz-adv-x="1079" />
<glyph unicode="&#x2001;" horiz-adv-x="2159" />
<glyph unicode="&#x2002;" horiz-adv-x="1079" />
<glyph unicode="&#x2003;" horiz-adv-x="2159" />
<glyph unicode="&#x2004;" horiz-adv-x="719" />
<glyph unicode="&#x2005;" horiz-adv-x="539" />
<glyph unicode="&#x2006;" horiz-adv-x="359" />
<glyph unicode="&#x2007;" horiz-adv-x="359" />
<glyph unicode="&#x2008;" horiz-adv-x="269" />
<glyph unicode="&#x2009;" horiz-adv-x="431" />
<glyph unicode="&#x200a;" horiz-adv-x="119" />
<glyph unicode="&#x2010;" horiz-adv-x="672" d="M40 640v41q0 20 31 20l81 -10l347 20h72q61 -6 61 -30v-51l-10 -11v-10l-276 -10l-286 10z" />
<glyph unicode="&#x2011;" horiz-adv-x="672" d="M40 640v41q0 20 31 20l81 -10l347 20h72q61 -6 61 -30v-51l-10 -11v-10l-276 -10l-286 10z" />
<glyph unicode="&#x2012;" horiz-adv-x="672" d="M40 640v41q0 20 31 20l81 -10l347 20h72q61 -6 61 -30v-51l-10 -11v-10l-276 -10l-286 10z" />
<glyph unicode="&#x2013;" />
<glyph unicode="&#x2014;" />
<glyph unicode="&#x2018;" />
<glyph unicode="&#x2019;" />
<glyph unicode="&#x201a;" />
<glyph unicode="&#x201c;" />
<glyph unicode="&#x201d;" />
<glyph unicode="&#x201e;" />
<glyph unicode="&#x2022;" />
<glyph unicode="&#x2026;" />
<glyph unicode="&#x202f;" horiz-adv-x="431" />
<glyph unicode="&#x2039;" />
<glyph unicode="&#x203a;" />
<glyph unicode="&#x205f;" horiz-adv-x="539" />
<glyph unicode="&#x20ac;" />
<glyph unicode="&#x2122;" />
<glyph unicode="&#x25fc;" horiz-adv-x="1425" d="M0 0v1425h1425v-1425h-1425z" />
</font>
</defs>
</svg>
